<svg width="32" height="32" viewBox="0 0 32 32" fill="none" xmlns="http://www.w3.org/2000/svg">
<mask id="mask0_1_272" style="mask-type:alpha" maskUnits="userSpaceOnUse" x="8" y="8" width="16" height="16">
<path d="M18.1609 23.5V18.0516H20.0085L20.2844 15.9801H18.1609V14.6385C18.1609 14.027 18.3269 13.6127 19.2144 13.6127H20.375V11.7039C20.179 11.6793 19.4934 11.625 18.7122 11.625C17.0806 11.625 15.978 12.6164 15.978 14.4166V15.9801H14.125V18.0516H15.9775L15.9739 23.5H9.75C9.06641 23.5 8.5 22.9336 8.5 22.25V9.75C8.5 9.06641 9.06641 8.5 9.75 8.5H22.25C22.9336 8.5 23.5 9.06641 23.5 9.75V22.25C23.5 22.9336 22.9336 23.5 22.25 23.5H18.1609Z" fill="white"/>
</mask>
<g mask="url(#mask0_1_272)">
<path d="M18.1609 23.5V18.0516H20.0085L20.2844 15.9801H18.1609V14.6385C18.1609 14.027 18.3269 13.6127 19.2144 13.6127H20.375V11.7039C20.179 11.6793 19.4934 11.625 18.7122 11.625C17.0806 11.625 15.978 12.6164 15.978 14.4166V15.9801H14.125V18.0516H15.9775L15.9739 23.5H9.75C9.06641 23.5 8.5 22.9336 8.5 22.25V9.75C8.5 9.06641 9.06641 8.5 9.75 8.5H22.25C22.9336 8.5 23.5 9.06641 23.5 9.75V22.25C23.5 22.9336 22.9336 23.5 22.25 23.5H18.1609Z" fill="white"/>
</g>
</svg>
