<svg width="32" height="32" viewBox="0 0 32 32" fill="none" xmlns="http://www.w3.org/2000/svg">
<path fill-rule="evenodd" clip-rule="evenodd" d="M8.5 12.8286C8.5 10.438 10.4379 8.5 12.8286 8.5H19.1714C21.562 8.5 23.5 10.4379 23.5 12.8286V19.1714C23.5 21.562 21.5621 23.5 19.1714 23.5H12.8286C10.438 23.5 8.5 21.5621 8.5 19.1714V12.8286ZM9.85776 12.9577V19.0423C9.85776 20.7569 11.2456 22.1422 12.9577 22.1422H19.0423C20.7569 22.1422 22.1422 20.7544 22.1422 19.0423V12.9577C22.1422 11.2431 20.7544 9.85776 19.0423 9.85776H12.9577C11.2431 9.85776 9.85776 11.2456 9.85776 12.9577ZM16 19.8147C13.8932 19.8147 12.1853 18.1068 12.1853 16C12.1853 13.8932 13.8932 12.1853 16 12.1853C18.1068 12.1853 19.8147 13.8932 19.8147 16C19.8147 18.1068 18.1068 19.8147 16 19.8147ZM16 18.4569C17.3569 18.4569 18.4569 17.3569 18.4569 16C18.4569 14.6431 17.3569 13.5431 16 13.5431C14.6431 13.5431 13.5431 14.6431 13.5431 16C13.5431 17.3569 14.6431 18.4569 16 18.4569ZM19.944 12.8966C19.4441 12.8966 19.0388 12.4913 19.0388 11.9914C19.0388 11.4915 19.4441 11.0862 19.944 11.0862C20.4439 11.0862 20.8491 11.4915 20.8491 11.9914C20.8491 12.4913 20.4439 12.8966 19.944 12.8966Z" fill="white"/>
</svg>
