<svg width="32" height="32" viewBox="0 0 32 32" fill="none" xmlns="http://www.w3.org/2000/svg">
<mask id="mask0_1_284" style="mask-type:alpha" maskUnits="userSpaceOnUse" x="8" y="8" width="16" height="16">
<path d="M16 8.5C11.8569 8.5 8.5 11.8569 8.5 16C8.5 19.1787 10.4775 21.8911 13.2681 22.9849C13.2021 22.3916 13.1411 21.481 13.2925 20.8315C13.4292 20.248 14.1714 17.1035 14.1714 17.1035C14.1714 17.1035 13.9492 16.6543 13.9492 15.9902C13.9492 14.9478 14.5522 14.1689 15.3042 14.1689C15.9438 14.1689 16.2539 14.6499 16.2539 15.2261C16.2539 15.8706 15.8438 16.8325 15.6313 17.7236C15.4556 18.4707 16.0073 19.0786 16.7422 19.0786C18.0752 19.0786 19.1006 17.6724 19.1006 15.6436C19.1006 13.8491 17.8115 12.5942 15.9683 12.5942C13.8345 12.5942 12.582 14.1934 12.582 15.8486C12.582 16.4932 12.8311 17.1841 13.1411 17.5601C13.2021 17.6333 13.2095 17.6992 13.1924 17.7749C13.1338 18.0117 13.0093 18.522 12.9849 18.6245C12.9507 18.7637 12.875 18.793 12.7334 18.7246C11.7959 18.29 11.21 16.9204 11.21 15.8193C11.21 13.4536 12.9287 11.2808 16.166 11.2808C18.7686 11.2808 20.79 13.1338 20.79 15.6143C20.79 18.1973 19.1592 20.2773 16.8984 20.2773C16.1392 20.2773 15.4238 19.8843 15.1797 19.418C15.1797 19.418 14.8037 20.8486 14.7109 21.2002C14.5425 21.8521 14.0859 22.6675 13.7783 23.1655C14.4814 23.3828 15.2261 23.5 16 23.5C20.1431 23.5 23.5 20.1431 23.5 16C23.5 11.8569 20.1431 8.5 16 8.5Z" fill="white"/>
</mask>
<g mask="url(#mask0_1_284)">
<path d="M16 8.5C11.8569 8.5 8.5 11.8569 8.5 16C8.5 19.1787 10.4775 21.8911 13.2681 22.9849C13.2021 22.3916 13.1411 21.481 13.2925 20.8315C13.4292 20.248 14.1714 17.1035 14.1714 17.1035C14.1714 17.1035 13.9492 16.6543 13.9492 15.9902C13.9492 14.9478 14.5522 14.1689 15.3042 14.1689C15.9438 14.1689 16.2539 14.6499 16.2539 15.2261C16.2539 15.8706 15.8438 16.8325 15.6313 17.7236C15.4556 18.4707 16.0073 19.0786 16.7422 19.0786C18.0752 19.0786 19.1006 17.6724 19.1006 15.6436C19.1006 13.8491 17.8115 12.5942 15.9683 12.5942C13.8345 12.5942 12.582 14.1934 12.582 15.8486C12.582 16.4932 12.8311 17.1841 13.1411 17.5601C13.2021 17.6333 13.2095 17.6992 13.1924 17.7749C13.1338 18.0117 13.0093 18.522 12.9849 18.6245C12.9507 18.7637 12.875 18.793 12.7334 18.7246C11.7959 18.29 11.21 16.9204 11.21 15.8193C11.21 13.4536 12.9287 11.2808 16.166 11.2808C18.7686 11.2808 20.79 13.1338 20.79 15.6143C20.79 18.1973 19.1592 20.2773 16.8984 20.2773C16.1392 20.2773 15.4238 19.8843 15.1797 19.418C15.1797 19.418 14.8037 20.8486 14.7109 21.2002C14.5425 21.8521 14.0859 22.6675 13.7783 23.1655C14.4814 23.3828 15.2261 23.5 16 23.5C20.1431 23.5 23.5 20.1431 23.5 16C23.5 11.8569 20.1431 8.5 16 8.5Z" fill="white"/>
</g>
</svg>
