<svg xmlns="http://www.w3.org/2000/svg" xmlns:xlink="http://www.w3.org/1999/xlink" viewBox="0,0,256,256" width="48px" height="48px" fill-rule="nonzero"><g fill="none" fill-rule="nonzero" stroke="none" stroke-width="1" stroke-linecap="butt" stroke-linejoin="miter" stroke-miterlimit="10" stroke-dasharray="" stroke-dashoffset="0" font-family="none" font-weight="none" font-size="none" text-anchor="none" style="mix-blend-mode: normal"><g transform="scale(5.33333,5.33333)"><path d="M39,7h-30c-1.654,0 -3,1.346 -3,3v1c0,1.402 0.967,2.582 2.269,2.91l2.396,25.556c0.241,2.585 2.382,4.534 4.978,4.534h16.715c2.596,0 4.736,-1.949 4.979,-4.533l2.396,-25.557c1.3,-0.328 2.267,-1.508 2.267,-2.91v-1c0,-1.654 -1.346,-3 -3,-3z" fill="#a5c926"></path><path d="M29,9c-0.553,0 -1,-0.447 -1,-1v-2c0,-1.103 -0.897,-2 -2,-2h-4c-1.103,0 -2,0.897 -2,2v2c0,0.553 -0.447,1 -1,1c-0.553,0 -1,-0.447 -1,-1v-2c0,-2.206 1.794,-4 4,-4h4c2.206,0 4,1.794 4,4v2c0,0.553 -0.447,1 -1,1z" fill="#000000"></path><path d="M24,38c-0.553,0 -1,-0.447 -1,-1v-16c0,-0.553 0.447,-1 1,-1c0.553,0 1,0.447 1,1v16c0,0.553 -0.447,1 -1,1z" fill="#000000"></path><path d="M31.001,38c-0.021,0 -0.042,-0.001 -0.063,-0.002c-0.551,-0.034 -0.97,-0.509 -0.936,-1.061l1,-16c0.035,-0.552 0.513,-0.956 1.061,-0.936c0.551,0.034 0.97,0.509 0.936,1.061l-1,16c-0.034,0.531 -0.475,0.938 -0.998,0.938z" fill="#000000"></path><path d="M16.999,38c-0.523,0 -0.964,-0.407 -0.997,-0.938l-1,-16c-0.034,-0.552 0.385,-1.026 0.936,-1.061c0.541,-0.022 1.025,0.384 1.061,0.936l1,16c0.034,0.552 -0.385,1.026 -0.936,1.061c-0.022,0.001 -0.042,0.002 -0.064,0.002z" fill="#000000"></path><path d="M36,15h-24c-0.553,0 -1,-0.447 -1,-1c0,-0.553 0.447,-1 1,-1h24c0.553,0 1,0.447 1,1c0,0.553 -0.447,1 -1,1z" fill="#000000"></path></g></g></svg>