<svg width="20" height="20" viewBox="0 0 20 20" fill="none" xmlns="http://www.w3.org/2000/svg">
<path fill-rule="evenodd" clip-rule="evenodd" d="M17.5 5.19562C16.9481 5.43937 16.355 5.60563 15.7325 5.67875C16.3675 5.29813 16.8556 4.695 17.085 3.97687C16.4919 4.32875 15.8325 4.585 15.1319 4.72438C14.57 4.12625 13.7694 3.75 12.8856 3.75C11.1863 3.75 9.80688 5.12937 9.80688 6.82875C9.80688 7.07062 9.83375 7.305 9.8875 7.52938C7.32937 7.4025 5.06125 6.17687 3.545 4.31375C3.27875 4.76812 3.1275 5.29812 3.1275 5.86187C3.1275 6.92875 3.66938 7.87125 4.49688 8.42313C3.99188 8.40563 3.51813 8.26938 3.10313 8.03688C3.10313 8.05188 3.10313 8.06375 3.10313 8.07625C3.10313 9.56812 4.1625 10.8131 5.57125 11.0938C5.3125 11.1644 5.04125 11.2038 4.76063 11.2038C4.56313 11.2038 4.3675 11.1844 4.18187 11.1475C4.5725 12.3706 5.71062 13.2594 7.05562 13.2862C6.00312 14.1112 4.675 14.6019 3.235 14.6019C2.98563 14.6019 2.74187 14.5875 2.5 14.5581C3.8625 15.4325 5.47875 15.9425 7.21688 15.9425C12.8781 15.9425 15.9744 11.2525 15.9744 7.185C15.9744 7.05313 15.9694 6.91875 15.9644 6.78688C16.565 6.3525 17.0875 5.81062 17.5 5.19562Z" fill="white"/>
</svg>
