<svg width="32" height="32" viewBox="0 0 32 32" fill="none" xmlns="http://www.w3.org/2000/svg">
<mask id="mask0_1_291" style="mask-type:alpha" maskUnits="userSpaceOnUse" x="7" y="9" width="18" height="14">
<path d="M16 9.75C18.3538 9.75 20.4338 9.99438 21.7031 10.18C22.7531 10.3338 23.6 11.1244 23.7931 12.1719C23.9587 13.0656 24.125 14.3719 24.125 16C24.125 17.6281 23.9562 18.9344 23.7931 19.8281C23.6 20.8756 22.7531 21.6687 21.7031 21.82C20.4288 22.0056 18.3413 22.25 16 22.25C13.6588 22.25 11.5712 22.0056 10.2969 21.82C9.24688 21.6687 8.4 20.8756 8.20687 19.8281C8.04375 18.9369 7.875 17.6331 7.875 16C7.875 14.3669 8.04375 13.0631 8.20687 12.1719C8.4 11.1244 9.24688 10.3338 10.2969 10.18C11.5662 9.99438 13.6462 9.75 16 9.75ZM14.125 12.4256V19.5744L15.0625 19.0469L19.4375 16.5469L20.375 16L19.4375 15.4531L15.0625 12.9531L14.125 12.4256Z" fill="white"/>
</mask>
<g mask="url(#mask0_1_291)">
<path d="M16 9.75C18.3538 9.75 20.4338 9.99438 21.7031 10.18C22.7531 10.3338 23.6 11.1244 23.7931 12.1719C23.9587 13.0656 24.125 14.3719 24.125 16C24.125 17.6281 23.9562 18.9344 23.7931 19.8281C23.6 20.8756 22.7531 21.6687 21.7031 21.82C20.4288 22.0056 18.3413 22.25 16 22.25C13.6588 22.25 11.5712 22.0056 10.2969 21.82C9.24688 21.6687 8.4 20.8756 8.20687 19.8281C8.04375 18.9369 7.875 17.6331 7.875 16C7.875 14.3669 8.04375 13.0631 8.20687 12.1719C8.4 11.1244 9.24688 10.3338 10.2969 10.18C11.5662 9.99438 13.6462 9.75 16 9.75ZM14.125 12.4256V19.5744L15.0625 19.0469L19.4375 16.5469L20.375 16L19.4375 15.4531L15.0625 12.9531L14.125 12.4256Z" fill="white"/>
</g>
</svg>
